<?xml version="1.0" encoding="UTF-8"?>
<svg enable-background="new 0 0 128 128" version="1.1" viewBox="0 0 128 128" xml:space="preserve" xmlns="http://www.w3.org/2000/svg">

<g><path d="m63.971 2c-34.244 4.011e-4 -62.003 27.769-62.003 62.024 5.019e-4 34.254 27.76 62.021 62.003 62.022 34.244 6.8e-4 62.004-27.767 62.005-62.022 5.8e-4 -34.255-27.76-62.024-62.005-62.024z" fill-opacity=".97143" style="paint-order:normal"/></g><g><path d="m78.938 26.858c6.3996 14.564 5.2384 20.597-5.5476 25.778 3.4353 4.482 1.9207 7.9491-2.2079 8.7432-3.7933 0.72966-5.4331-4.3303-5.4331-4.3303l-1.5984 0.28361c0.12499 2.0158-0.07391 2.7569 0.24688 4.2234 1.8248 0.49101 4.2714 1.6274 7.2173 4.2758 1.7112 1.5384 3.245 3.8431 3.0087 6.1916 5.65 0.25495 6.0888-2.1786 6.0888-2.1786l-0.85768-1.4639c-1.2237 1.1061-3.8219 1.1111-3.9736-0.67366-0.23651-2.7839 4.6389-2.8108 4.6389-2.8108s1.5098 0.7232 4.4666-1.5738c-3.5413-1.757-3.702-3.2663-2.6478-5.391 1.0542-2.1248 2.5652-1.3993 5.8754-0.3799 7.7727-18.91-9.2765-30.693-9.2765-30.693zm-32.334 0.89444c-19.458 15.299-7.6835 31.682-7.6835 31.682s2.2823-3.5072 4.706-0.7852c2.4237 2.722-0.38393 5.5193-0.38393 5.5193l-0.75973 1.5949s0.91993 0.70412 3.098 1.5003c0.86158-1.1792 6.3519 0.18271 5.5052 2.1524-0.84667 1.9697-3.8721 0.58423-3.8721 0.58423l-1.0708 1.2307s2.6894 1.9949 3.7247 2.6266c0.76949 0.46953 2.6926-0.73412 4.0337-1.0601-0.09167-1.9786 0.10561-3.8743 0.57513-5.2789 0.87172-2.6078 5.6003-4.5211 7.9987-5.3407l0.50483-4.6858-2.8037-0.64502s-1.5707 5.5425-5.2578 4.891c-3.6871-0.65148-6.5212-5.4363-2.5638-8.9531-13.688-8.0683-8.1528-16.73-5.7509-25.032zm17.226 35.691s-6.9177 1.9046-7.9072 4.8647c-0.98949 2.9601-0.61776 8.4962 1.7201 11.296 0 0 8.1749 4.2448 11.605 0.50939 3.4301-3.7354 3.9839-7.9258 3.9839-7.9258l-4.7852-1.1009-0.4685-2.8855-2.6517-0.09498zm15.373 9.4891c-2.017 0.10375-3.031 0.45895-4.5008 0.76428-0.5102 1.8195-1.6985 4.9434-4.3779 7.8612-1.5564 1.6949-3.9354 2.0045-6.2813 1.7435-0.84404 5.2403 2.2005 6.6209 2.2005 6.6209l1.4723-0.84173c-1.0932-1.2353-1.0703-3.833 0.71597-3.9658 2.7863-0.20717 2.7621 4.6678 2.7621 4.6678 0 0-0.73993 1.5027 1.5258 4.4836 1.7942-3.5226 3.3046-3.668 5.4182-2.5914 2.1135 1.0765 1.373 2.5801 0.31885 5.8794 18.827 7.9714 30.789-8.9538 30.789-8.9538-14.63 6.2459-20.651 5.0217-25.717-5.8183-4.518 3.3879-7.9692 1.836-8.7198-2.3007-0.68966-3.8008 4.3876-5.3858 4.3876-5.3858zm-25.883 1.7393-3.2153 0.99588-1.0948 1.8665s4.2515 0.23783 3.6389 3.9316c-0.61261 3.6937-5.3665 6.5786-8.9248 2.6585-7.9237 13.773-16.644 8.3279-24.97 6.0137 15.503 19.295 31.761 7.3489 31.761 7.3489s-3.5316-2.2453-0.83526-4.6975c2.6963-2.4522 5.5229 0.32464 5.5229 0.32464l1.6026 0.74347s0.6946-0.92716 1.4678-3.1134c-1.1882-0.84911-1.6932-5.4469 1.1284-5.2618 2.1393 0.14029 1.6328 4.0272 1.6328 4.0272l3.3867 1.4125c-1.3741-2.6129-2.7585-4.1414-1.8997-7.5798-2.3178 0.38205-3.8535-0.35058-5.861-2.2523-2.4019-2.2752-2.4946-4.0283-3.3394-6.418z" fill="#fff"/></g></svg>
