<?xml version="1.0" encoding="UTF-8"?>
<!DOCTYPE svg  PUBLIC '-//W3C//DTD SVG 1.1//EN'  'http://www.w3.org/Graphics/SVG/1.1/DTD/svg11.dtd'>
<svg enable-background="new 0 0 128 128" version="1.1" viewBox="0 0 128 128" xml:space="preserve" xmlns="http://www.w3.org/2000/svg">
<path d="m64 2.167c-34.15 0-61.833 27.683-61.833 61.833s27.683 61.833 61.833 61.833 61.833-27.683 61.833-61.833-27.683-61.833-61.833-61.833zm3.927 36.152c0.81-2.867 5.111-12.342 5.298-13.339s0.81-4.924 0-8.602c0 0 8.399 9.778 9.537 25.494 0.686 9.474-1.371 10.846-3.678 11.905-2.255 1.036-9.287 0.062-10.97-4.55-1.399-3.833-0.997-8.041-0.187-10.908zm-23.188 3.553c1.137-15.716 9.537-25.494 9.537-25.494-0.81 3.678-0.187 7.605 0 8.602s4.488 10.472 5.298 13.339 1.212 7.075-0.187 10.908c-1.683 4.613-8.715 5.586-10.97 4.55-2.306-1.059-4.363-2.43-3.678-11.905zm-19.198 14.96c1.137-15.716 9.537-25.494 9.537-25.494-0.81 3.678-0.187 7.605 0 8.602s4.488 10.472 5.298 13.339 1.212 7.075-0.187 10.908c-1.683 4.613-8.715 5.586-10.97 4.55-2.307-1.059-4.363-2.431-3.678-11.905zm65.22 41.991c-7.812 6.815-26.541 5.901-27.123 5.901s-19.31 0.914-27.123-5.901c-7.812-6.815-5.608-16.154-3.657-18.7 1.912-2.493 8.235-5.39 10.056-6.483 2.493-1.496 2.659-4.488 7.646-9.225s13.077-4.696 13.077-4.696 8.09-0.042 13.077 4.696c4.987 4.737 5.153 7.729 7.646 9.225 1.821 1.093 8.145 3.989 10.056 6.483 1.953 2.545 4.157 11.885-3.655 18.7zm7.522-30.086c-2.255 1.036-9.287 0.062-10.97-4.55-1.399-3.833-0.997-8.041-0.187-10.908s5.111-12.342 5.298-13.339 0.81-4.924 0-8.602c0 0 8.399 9.778 9.537 25.494 0.685 9.474-1.372 10.846-3.678 11.905z"/>
</svg>
