<?xml version="1.0" encoding="UTF-8"?>
<!DOCTYPE svg  PUBLIC '-//W3C//DTD SVG 1.1//EN'  'http://www.w3.org/Graphics/SVG/1.1/DTD/svg11.dtd'>
<svg enable-background="new 0 0 128 128" version="1.1" viewBox="0 0 128 128" xml:space="preserve" xmlns="http://www.w3.org/2000/svg">
<path d="m64 2.167c-34.15 0-61.833 27.683-61.833 61.833s27.683 61.833 61.833 61.833 61.833-27.683 61.833-61.833-27.683-61.833-61.833-61.833zm-1.662 12.882c3.154 3.329 5.818 6.483 11.303 8.477s14.793 3.158 20.279 11.137c3.657 5.319 3.41 9.419 2.66 13.297-0.929 4.802-1.158 7.606-1.818 14.419l-6.628-0.011c1.434-12.376-0.508-19.46-3.688-24.548-2.918-4.669-12.3-7.48-17.453-9.973s-14.296-13.463-14.296-13.463 6.649-2.494 9.641 0.665zm-8.997 3.106l0.935 1.247s-21.736 23.987-22.44 44.599h-1.371c0.748-22.486 22.876-45.846 22.876-45.846zm40.578 75.183c-5.485 7.978-14.793 9.142-20.279 11.137-5.485 1.995-8.149 5.148-11.303 8.477-2.992 3.158-9.641 0.665-9.641 0.665s9.142-10.97 14.295-13.464c5.153-2.493 14.535-5.305 17.453-9.973 3.18-5.088 5.122-9.676 3.688-22.052l6.628-0.011c0.66 6.813 0.889 7.122 1.818 11.923 0.752 3.879 0.998 7.979-2.659 13.298zm-63.454-27.338h1.371c0.704 20 22.44 43.879 22.44 43.879l-0.935 1.186s-22.128-23.065-22.876-45.065zm72.035 2.072c-1.849 0.229-2.223 0.171-2.223-0.891 0-0.81-0.042-1.182-0.042-1.182h-70.892s-2.493 4-3.491 4h-9.225l1.995-4h8.378v-2h-8.378l-1.995-4h9.225c0.997 0 3.491 4 3.491 4h70.892s0.042-1.371 0.042-2.182c0-1.061 0.374-1.839 2.223-1.61 2.393 0.296 8.83 3.901 8.83 3.901s-6.436 3.669-8.83 3.964z"/>
</svg>
