<?xml version="1.0" encoding="UTF-8"?>
<!DOCTYPE svg  PUBLIC '-//W3C//DTD SVG 1.1//EN'  'http://www.w3.org/Graphics/SVG/1.1/DTD/svg11.dtd'>
<svg enable-background="new 0 0 128 128" version="1.1" viewBox="0 0 128 128" xml:space="preserve" xmlns="http://www.w3.org/2000/svg">
<path d="M64,2.167C29.85,2.167,2.167,29.85,2.167,64S29.85,125.833,64,125.833S125.833,98.15,125.833,64S98.15,2.167,64,2.167z   M48.448,31.213l17.422,0.016c1.377,0,2.524,0.783,2.524,2.16L68.363,36H45.955l-0.031-2.611  C45.924,32.012,47.071,31.213,48.448,31.213z M41,74.846C41,76.498,38.598,77,36.945,77H26.598L13.965,60.125L26.598,43h10.347  C38.598,43,41,43.773,41,45.425V74.846z M64,118H51V89h13V118z M65.87,87.291l-17.422,0.016c-1.377,0-2.524-0.558-2.524-1.935  L45.955,83h22.408l0.031,2.372C68.394,86.749,67.247,87.291,65.87,87.291z M71,78.008C71,79.66,69.66,81,68.008,81H45.992  C44.34,81,43,79.66,43,78.008V40.992C43,39.34,44.34,38,45.992,38h22.016C69.66,38,71,39.34,71,40.992V78.008z M107.134,85H93.753  l-17.711-5.825C74.38,78.635,73,77.495,73,75.843v-3.366V48.043v-3.366c0-1.652,1.546-2.593,3.042-3.092L93.088,36h14.045  C107.134,36,114.614,62,107.134,85z"/>
</svg>
