<?xml version="1.0" encoding="UTF-8"?>
<!DOCTYPE svg  PUBLIC '-//W3C//DTD SVG 1.1//EN'  'http://www.w3.org/Graphics/SVG/1.1/DTD/svg11.dtd'>
<svg enable-background="new 0 0 128 128" version="1.1" viewBox="0 0 128 128" xml:space="preserve" xmlns="http://www.w3.org/2000/svg">
	<polygon points="55 55.274 55 66.493 63 72.789 71 66.493 71 55.274 63 48.978"/>
	<path d="M64,2.167C29.85,2.167,2.167,29.85,2.167,64S29.85,125.833,64,125.833S125.833,98.15,125.833,64S98.15,2.167,64,2.167z    M73,100h-3v17.107c0,0-4,1.247-13,0V100h-2V90h18V100z M103,74.97l-13.08-7.198L70.358,88H57.143L37.83,67.772L25,74.97V46.796   l12.83,7.542l19.536-19.191L49.539,23h28.423l-7.636,12.148L89.92,54.654L103,46.796V74.97z"/>
</svg>
