<?xml version="1.0" encoding="UTF-8"?>
<!DOCTYPE svg  PUBLIC '-//W3C//DTD SVG 1.1//EN'  'http://www.w3.org/Graphics/SVG/1.1/DTD/svg11.dtd'>
<svg enable-background="new 0 0 128 128" version="1.1" viewBox="0 0 128 128" xml:space="preserve" xmlns="http://www.w3.org/2000/svg">
<path d="m64 2.167c-34.15 0-61.833 27.683-61.833 61.833s27.683 61.833 61.833 61.833 61.833-27.683 61.833-61.833-27.683-61.833-61.833-61.833zm16.206 44.006s15.334-6.483 2.743-18.201c0 0 11.344 3.615 10.596 14.586s-9.599 14.71-13.588 14.96l0.249-11.345zm-35.654-18.201c-12.591 11.718 2.743 18.201 2.743 18.201l0.249 11.344c-3.989-0.249-12.84-3.989-13.588-14.96-0.748-10.97 10.596-14.585 10.596-14.585zm3.117 56.473l-8.726 8.228s-23.935-7.106-28.922-28.548l34.158 8.726s0.125 3.615 4.862 5.859l0.499 7.355-1.871-1.62zm5.485 31.914l-4.114-70.31s14.71-7.48 29.421 0l-4.114 70.31s-10.721 2.493-21.193 0zm35.405-23.686l-8.726-8.228-1.87 1.621 0.499-7.355c4.737-2.244 4.862-5.859 4.862-5.859l34.158-8.726c-4.988 21.441-28.923 28.547-28.923 28.547z"/>
</svg>
