<?xml version="1.0" encoding="UTF-8"?>
<!DOCTYPE svg  PUBLIC '-//W3C//DTD SVG 1.1//EN'  'http://www.w3.org/Graphics/SVG/1.1/DTD/svg11.dtd'>
<svg enable-background="new 0 0 128 128" version="1.1" viewBox="0 0 128 128" xml:space="preserve" xmlns="http://www.w3.org/2000/svg">
	<ellipse cx="79.209" cy="64.125" rx="8.602" ry="9.848"/>
	<path d="m66.493 76.092c-1.371-3.615-2.867-3.241-2.867-3.241s-1.496-0.374-2.867 3.241-4.488 10.098-4.488 10.098-1.122 2.369 1.496 2.369c0 0 6.42-0.499 11.718 0 2.606 0.245 1.496-2.369 1.496-2.369s-3.116-6.482-4.488-10.098z"/>
	<ellipse cx="48.043" cy="64.125" rx="8.602" ry="9.848"/>
	<path d="m64 2.167c-34.15 0-61.833 27.683-61.833 61.833s27.683 61.833 61.833 61.833 61.833-27.683 61.833-61.833-27.683-61.833-61.833-61.833zm-13.897 103.47c-3.906 0.457-5.889 0-5.889 0-1.33-0.083-1.214-0.998-1.214-0.998v-2.826c0-4.987 4-5.07 4-5.07s4 0.083 4 5.07v2.826s0.427 0.843-0.897 0.998zm10.985-0.499c-3.906 0.457-5.382 0-5.382 0-1.33-0.083-0.707-0.997-0.707-0.997v-2.826c0-4.987 3.5-5.07 3.5-5.07s3.5 0.083 3.5 5.07v2.826c1e-3 0 0.413 0.842-0.911 0.997zm10.986 0c-3.906 0.457-6.374 0-6.374 0-1.33-0.083-1.699-0.997-1.699-0.997v-2.826c0-4.987 4.5-5.07 4.5-5.07s4.5 0.083 4.5 5.07v2.826c-1e-3 0 0.396 0.842-0.927 0.997zm11.485 0.499c-3.906 0.457-6.617 0-6.617 0-1.33-0.083-1.942-0.998-1.942-0.998v-2.826c0-4.987 5-5.07 5-5.07s5 0.083 5 5.07v2.826s-0.118 0.843-1.441 0.998zm12.355-26.554s2.493 3.117-1.371 7.231c-3.865 4.114-2.743 2.992-4.613 5.859s-2.638 2.5-4.239 2.244c-22.627-3.615-44.131 0-44.131 0-1.621 0-2.369 0.623-4.239-2.244s-0.748-1.745-4.613-5.859-1.371-7.231-1.371-7.231l3.241-4.862c-4.363-7.231-12.84-21.442-3.117-38.397s32.165-16.455 32.165-16.455 22.44-0.499 32.163 16.456 1.247 31.166-3.117 38.397l3.242 4.861z"/>
</svg>
