<?xml version="1.0" encoding="UTF-8"?>
<!DOCTYPE svg  PUBLIC '-//W3C//DTD SVG 1.1//EN'  'http://www.w3.org/Graphics/SVG/1.1/DTD/svg11.dtd'>
<svg enable-background="new 0 0 128 128" version="1.1" viewBox="0 0 128 128" xml:space="preserve" xmlns="http://www.w3.org/2000/svg">
<path d="M64,2.167C29.85,2.167,2.167,29.85,2.167,64S29.85,125.833,64,125.833S125.833,98.15,125.833,64S98.15,2.167,64,2.167z   M46.464,75.959c-14.96-7.48-31.249,6.769-31.249,6.769L30.341,42h16.206L46.464,75.959z M58,116h-9V29.219  C49,27.566,49.757,27,51.409,27h3.989C57.051,27,58,27.566,58,29.219V116z M67.74,110.375c18.118-23.935,8.685-36.166,8.685-36.166  c-8.772-2.076-15.915,1.634-15.915,1.634l-0.132-33.64c0,0,19.17,0.965,35.127-12.831c0,0,16.265,11.451,16.431,33.89  C112.102,85.702,96.662,108.048,67.74,110.375z"/>
</svg>
